<svg width="97" height="16" viewBox="0 0 97 16" fill="none" xmlns="http://www.w3.org/2000/svg">
<path d="M10.9984 12.4985C12.9984 14.4985 14.9984 12.4985 14.9984 12.4985L18.9998 8.49978C21 6.5 21 4.5 19 2.5C17.5 1 15 0.5 12.9984 2.49849C10.9969 4.49698 8.99845 6.49849 8.99845 6.49849C8.99845 6.49849 6.99847 8.49847 8.99845 10.4985" stroke="#EAF2F0" stroke-width="2"/>
<path d="M10.9991 2.4991C8.99912 0.499112 6.99915 2.4991 6.99915 2.4991L2.99778 6.49781C0.997561 8.49759 0.997561 10.4976 2.99756 12.4976C4.49756 13.9976 6.99756 14.4976 8.99911 12.4991C11.0007 10.5006 12.9991 8.4991 12.9991 8.4991C12.9991 8.4991 15 6.50002 13 4.5" stroke="#2CC2A3" stroke-width="2"/>
<path d="M25.128 4.016C24.7973 4.016 24.52 3.904 24.296 3.68C24.072 3.456 23.96 3.17867 23.96 2.848C23.96 2.51733 24.072 2.24 24.296 2.016C24.52 1.792 24.7973 1.68 25.128 1.68C25.448 1.68 25.72 1.792 25.944 2.016C26.168 2.24 26.28 2.51733 26.28 2.848C26.28 3.17867 26.168 3.456 25.944 3.68C25.72 3.904 25.448 4.016 25.128 4.016ZM26.024 5.184V14H24.2V5.184H26.024ZM32.0668 5.04C32.7601 5.04 33.3788 5.184 33.9228 5.472C34.4774 5.76 34.9094 6.18667 35.2188 6.752C35.5281 7.31733 35.6828 8 35.6828 8.8V14H33.8748V9.072C33.8748 8.28267 33.6774 7.68 33.2828 7.264C32.8881 6.83733 32.3494 6.624 31.6668 6.624C30.9841 6.624 30.4401 6.83733 30.0348 7.264C29.6401 7.68 29.4428 8.28267 29.4428 9.072V14H27.6188V5.184H29.4428V6.192C29.7414 5.82933 30.1201 5.54667 30.5788 5.344C31.0481 5.14133 31.5441 5.04 32.0668 5.04Z" fill="#2CC2A3"/>
<path d="M39.0174 2.88V9.968C39.0174 10.8107 39.236 11.4453 39.6734 11.872C40.1214 12.2987 40.74 12.512 41.5294 12.512C42.3294 12.512 42.948 12.2987 43.3854 11.872C43.8334 11.4453 44.0574 10.8107 44.0574 9.968V2.88H45.8814V9.936C45.8814 10.8427 45.684 11.6107 45.2894 12.24C44.8947 12.8693 44.3667 13.3387 43.7054 13.648C43.044 13.9573 42.3134 14.112 41.5134 14.112C40.7134 14.112 39.9827 13.9573 39.3214 13.648C38.6707 13.3387 38.1534 12.8693 37.7694 12.24C37.3854 11.6107 37.1934 10.8427 37.1934 9.936V2.88H39.0174ZM51.9043 5.04C52.5976 5.04 53.2163 5.184 53.7603 5.472C54.3149 5.76 54.7469 6.18667 55.0563 6.752C55.3656 7.31733 55.5203 8 55.5203 8.8V14H53.7123V9.072C53.7123 8.28267 53.5149 7.68 53.1203 7.264C52.7256 6.83733 52.1869 6.624 51.5043 6.624C50.8216 6.624 50.2776 6.83733 49.8723 7.264C49.4776 7.68 49.2803 8.28267 49.2803 9.072V14H47.4563V5.184H49.2803V6.192C49.5789 5.82933 49.9576 5.54667 50.4163 5.344C50.8856 5.14133 51.3816 5.04 51.9043 5.04ZM57.9749 4.016C57.6442 4.016 57.3669 3.904 57.1429 3.68C56.9189 3.456 56.8069 3.17867 56.8069 2.848C56.8069 2.51733 56.9189 2.24 57.1429 2.016C57.3669 1.792 57.6442 1.68 57.9749 1.68C58.2949 1.68 58.5669 1.792 58.7909 2.016C59.0149 2.24 59.1269 2.51733 59.1269 2.848C59.1269 3.17867 59.0149 3.456 58.7909 3.68C58.5669 3.904 58.2949 4.016 57.9749 4.016ZM58.8709 5.184V14H57.0469V5.184H58.8709ZM62.5936 6.672V11.552C62.5936 11.8827 62.6683 12.1227 62.8176 12.272C62.9776 12.4107 63.2443 12.48 63.6176 12.48H64.7376V14H63.2976C62.4763 14 61.847 13.808 61.4096 13.424C60.9723 13.04 60.7536 12.416 60.7536 11.552V6.672H59.7136V5.184H60.7536V2.992H62.5936V5.184H64.7376V6.672H62.5936ZM66.5468 4.016C66.2161 4.016 65.9388 3.904 65.7148 3.68C65.4908 3.456 65.3788 3.17867 65.3788 2.848C65.3788 2.51733 65.4908 2.24 65.7148 2.016C65.9388 1.792 66.2161 1.68 66.5468 1.68C66.8668 1.68 67.1388 1.792 67.3628 2.016C67.5868 2.24 67.6988 2.51733 67.6988 2.848C67.6988 3.17867 67.5868 3.456 67.3628 3.68C67.1388 3.904 66.8668 4.016 66.5468 4.016ZM67.4428 5.184V14H65.6188V5.184H67.4428ZM72.8615 14.144C72.0295 14.144 71.2775 13.9573 70.6055 13.584C69.9335 13.2 69.4055 12.6667 69.0215 11.984C68.6375 11.2907 68.4455 10.4907 68.4455 9.584C68.4455 8.688 68.6428 7.89333 69.0375 7.2C69.4322 6.50667 69.9708 5.97333 70.6535 5.6C71.3362 5.22667 72.0988 5.04 72.9415 5.04C73.7842 5.04 74.5468 5.22667 75.2295 5.6C75.9122 5.97333 76.4508 6.50667 76.8455 7.2C77.2402 7.89333 77.4375 8.688 77.4375 9.584C77.4375 10.48 77.2348 11.2747 76.8295 11.968C76.4242 12.6613 75.8695 13.2 75.1655 13.584C74.4722 13.9573 73.7042 14.144 72.8615 14.144ZM72.8615 12.56C73.3308 12.56 73.7682 12.448 74.1735 12.224C74.5895 12 74.9255 11.664 75.1815 11.216C75.4375 10.768 75.5655 10.224 75.5655 9.584C75.5655 8.944 75.4428 8.40533 75.1975 7.968C74.9522 7.52 74.6268 7.184 74.2215 6.96C73.8162 6.736 73.3788 6.624 72.9095 6.624C72.4402 6.624 72.0028 6.736 71.5975 6.96C71.2028 7.184 70.8882 7.52 70.6535 7.968C70.4188 8.40533 70.3015 8.944 70.3015 9.584C70.3015 10.5333 70.5415 11.2693 71.0215 11.792C71.5122 12.304 72.1255 12.56 72.8615 12.56ZM82.8886 5.04C83.582 5.04 84.2006 5.184 84.7446 5.472C85.2993 5.76 85.7313 6.18667 86.0406 6.752C86.35 7.31733 86.5046 8 86.5046 8.8V14H84.6966V9.072C84.6966 8.28267 84.4993 7.68 84.1046 7.264C83.71 6.83733 83.1713 6.624 82.4886 6.624C81.806 6.624 81.262 6.83733 80.8566 7.264C80.462 7.68 80.2646 8.28267 80.2646 9.072V14H78.4406V5.184H80.2646V6.192C80.5633 5.82933 80.942 5.54667 81.4006 5.344C81.87 5.14133 82.366 5.04 82.8886 5.04Z" fill="#EAF2F0"/>
</svg>
